;note table constants
	.DEFINE C_0 $00
	.DEFINE C0# $01
	.DEFINE D_0 $02
	.DEFINE D0# $03
	.DEFINE E_0 $04
	.DEFINE F_0 $05
	.DEFINE F0# $06
	.DEFINE G_0 $07
	.DEFINE G0# $08
	.DEFINE A_0 $09
	.DEFINE A0# $0A
	.DEFINE B_0 $0B
	.DEFINE C_1 $0C
	.DEFINE C1# $0D
	.DEFINE D_1 $0E
	.DEFINE D1# $0F
	.DEFINE E_1 $10
	.DEFINE F_1 $11
	.DEFINE F1# $12
	.DEFINE G_1 $13
	.DEFINE G1# $14
	.DEFINE A_1 $15
	.DEFINE A1# $16
	.DEFINE B_1 $17
	.DEFINE C_2 $18
	.DEFINE C2# $19
	.DEFINE D_2 $1A
	.DEFINE D2# $1B
	.DEFINE E_2 $1C
	.DEFINE F_2 $1D
	.DEFINE F2# $1E
	.DEFINE G_2 $1F
	.DEFINE G2# $20
	.DEFINE A_2 $21
	.DEFINE A2# $22
	.DEFINE B_2 $23
	.DEFINE C_3 $24
	.DEFINE C3# $25
	.DEFINE D_3 $26
	.DEFINE D3# $27
	.DEFINE E_3 $28
	.DEFINE F_3 $29
	.DEFINE F3# $2A
	.DEFINE G_3 $2B
	.DEFINE G3# $2C
	.DEFINE A_3 $2D
	.DEFINE A3# $2E
	.DEFINE B_3 $2F
	.DEFINE C_4 $30
	.DEFINE C4# $31
	.DEFINE D_4 $32
	.DEFINE D4# $33
	.DEFINE E_4 $34
	.DEFINE F_4 $35
	.DEFINE F4# $36
	.DEFINE G_4 $37
	.DEFINE G4# $38
	.DEFINE A_4 $39
	.DEFINE A4# $3A
	.DEFINE B_4 $3B
	.DEFINE C_5 $3C
	.DEFINE C5# $3D
	.DEFINE D_5 $3E
	.DEFINE D5# $3F
	.DEFINE E_5 $40
	.DEFINE F_5 $41
	.DEFINE F5# $42
	.DEFINE G_5 $43
	.DEFINE G5# $44
	.DEFINE A_5 $45
	.DEFINE A5# $46
	.DEFINE B_5 $47
	.DEFINE C_6 $48
	.DEFINE C6# $49
	.DEFINE D_6 $4A
	.DEFINE D6# $4B
	.DEFINE E_6 $4C
	.DEFINE F_6 $4D
	.DEFINE F6# $4E
	.DEFINE G_6 $4F
	.DEFINE G6# $50
	.DEFINE A_6 $51
	.DEFINE A6# $52
	.DEFINE B_6 $53
	.DEFINE C_7 $54
	.DEFINE C7# $55
	.DEFINE D_7 $56
	.DEFINE D7# $57
	.DEFINE E_7 $58
	.DEFINE F_7 $59
	.DEFINE F7# $5A
	.DEFINE G_7 $5B
	.DEFINE G7# $5C
	.DEFINE A_7 $5D
	.DEFINE A7# $5E
	.DEFINE B_7 $5F

;cmd_7
	volume_attack = 0
	volume_decay  = 1 << 7
